#!OML:ASF X:\für Bonn\!DataBase\2005_08_10_Bjorn_Final\c3d\bjorn.ASF
:FULLY-SPECIFIED
:DEGREES
81
root 0.633763 7.80703 3.27339 -184.854 -1.14964 -178.928
lowerback 31.7789 1.4158 7.31091
upperback 12.781 0.093991 1.23071
thorax -2.57461 -1.33967 -2.78877
lowerneck -21.6492 -1.54994 0.412191
upperneck -7.86154 -4.00749 -0.975205
head 1.03613 -2.84101 -0.690449
rclavicle -1.23246e-014 -7.95139e-016
rhumerus 76.419 -0.801562 -67.8722
rradius 12.1475
rwrist 35.2561
rhand -14.4854 9.26781
rfingers 7.12502
rthumb 11.661 -20.3877
lclavicle -1.23246e-014 -7.95139e-016
lhumerus 79.8783 -10.9196 68.4394
lradius 8.74351
lwrist -42.3023
lhand -23.7393 -7.47786
lfingers 7.12502
lthumb 2.7291 22.4844
rfemur 67.251 -69.7447 -159.317
rtibia 155.762
rfoot -75.9211 60.9318
rtoes -28.4928
lfemur -101.642 102.752 -22.8
ltibia 158.539
lfoot -59.1981 -25.2469
ltoes -40.7692
82
root 0.630506 7.78603 3.27678 -184.964 -1.17821 -178.909
lowerback 32.048 1.41936 7.42361
upperback 12.906 0.0718628 1.30867
thorax -2.54105 -1.37677 -2.7584
lowerneck -21.527 -1.43191 0.456164
upperneck -8.0538 -3.8811 -1.06425
head 0.949303 -2.78986 -0.711136
rclavicle -8.34896e-015 -4.77083e-015
rhumerus 76.1217 -0.688967 -67.8618
rradius 12.3469
rwrist 34.8998
rhand -14.1565 9.28618
rfingers 7.12502
rthumb 11.9782 -20.3511
lclavicle -8.34896e-015 -4.77083e-015
lhumerus 79.7622 -10.8714 68.7367
lradius 8.68202
lwrist -42.5098
lhand -23.7602 -7.38931
lfingers 7.12502
lthumb 2.70892 22.5732
rfemur 66.9552 -69.3673 -159.352
rtibia 155.918
rfoot -76.3233 60.9364
rtoes -28.537
lfemur -101.57 103.611 -22.5578
ltibia 158.69
lfoot -59.4347 -25.3802
ltoes -40.4883
83
root 0.627697 7.78638 3.28325 -185.025 -1.23007 -178.923
lowerback 32.3035 1.41817 7.54808
upperback 13.0257 0.0510439 1.34136
thorax -2.50592 -1.4081 -2.78573
lowerneck -21.5642 -1.33126 0.632577
upperneck -8.10309 -3.80056 -1.27282
head 0.933546 -2.76515 -0.803108
rclavicle -3.57812e-015 1.86858e-014
rhumerus 75.9274 -0.616995 -67.5734
rradius 12.3106
rwrist 34.3073
rhand -14.0106 9.29085
rfingers 7.12502
rthumb 12.1188 -20.3382
lclavicle -3.57812e-015 1.86858e-014
lhumerus 79.4575 -10.966 68.9952
lradius 8.91293
lwrist -42.8028
lhand -23.6407 -7.20459
lfingers 7.12502
lthumb 2.82432 22.7565
rfemur 66.7149 -69.4216 -159.153
rtibia 155.93
rfoot -76.2403 60.7397
rtoes -28.8795
lfemur -101.478 103.627 -22.6087
ltibia 158.674
lfoot -59.2633 -25.5658
ltoes -40.081
84
root 0.625055 7.80105 3.29159 -185.036 -1.27925 -178.923
lowerback 32.9346 1.36788 7.72261
upperback 12.8476 0.0432528 1.25221
thorax -2.53477 -1.43941 -2.70743
lowerneck -21.7451 -1.21512 0.851777
upperneck -8.12315 -3.72442 -1.60264
head 0.949192 -2.75357 -0.946482
rclavicle 7.15625e-015 7.95139e-015
rhumerus 75.9229 -0.481548 -66.9841
rradius 12.0299
rwrist 33.4328
rhand -13.9897 9.32188
rfingers 7.12502
rthumb 12.139 -20.3059
lclavicle 7.15625e-015 7.95139e-015
lhumerus 79.1873 -11.0119 69.2743
lradius 9.1738
lwrist -43.1954
lhand -23.3578 -6.92997
lfingers 7.12502
lthumb 3.09753 23.0273
rfemur 66.5965 -69.7353 -158.826
rtibia 155.836
rfoot -75.9694 60.4065
rtoes -29.2634
lfemur -101.274 103.294 -22.697
ltibia 158.564
lfoot -59.0135 -25.6003
ltoes -39.8067
85
root 0.621413 7.831 3.30287 -184.997 -1.33958 -178.908
lowerback 33.1627 1.35209 7.86242
upperback 12.9347 0.0233443 1.30648
thorax -2.51586 -1.46697 -2.7138
lowerneck -21.9395 -1.11412 1.06247
upperneck -8.07963 -3.65627 -1.92465
head 0.989785 -2.74158 -1.08881
rclavicle -3.49861e-014 -2.70347e-014
rhumerus 75.8773 -0.34101 -66.286
rradius 11.7066
rwrist 32.5586
rhand -14.004 9.39434
rfingers 7.12502
rthumb 12.1253 -20.2343
lclavicle -3.49861e-014 -2.70347e-014
lhumerus 78.7462 -11.1247 69.5729
lradius 9.55738
lwrist -43.6492
lhand -22.9175 -6.65786
lfingers 7.12502
lthumb 3.52281 23.2928
rfemur 66.5443 -70.4621 -158.299
rtibia 155.627
rfoot -75.1532 60.1719
rtoes -29.4968
lfemur -100.988 102.423 -22.8321
ltibia 158.345
lfoot -58.434 -25.9219
ltoes -39.1536
86
root 0.617987 7.87424 3.31477 -184.878 -1.40098 -178.909
lowerback 33.3236 1.34198 7.9823
upperback 13.0175 0.00900761 1.35337
thorax -2.47749 -1.48729 -2.7207
lowerneck -22.2181 -1.01364 1.26712
upperneck -8.00254 -3.59128 -2.24214
head 1.05655 -2.73311 -1.23256
rclavicle -1.15295e-014 -1.19271e-014
rhumerus 75.768 -0.273729 -65.9393
rradius 11.5054
rwrist 32.2036
rhand -14.0166 9.41652
rfingers 7.12502
rthumb 12.1131 -20.2128
lclavicle -1.15295e-014 -1.19271e-014
lhumerus 78.5146 -11.1812 69.8535
lradius 9.66805
lwrist -44.0996
lhand -22.4427 -6.5127
lfingers 7.12502
lthumb 3.98131 23.4299
rfemur 66.696 -71.4686 -157.788
rtibia 155.331
rfoot -74.1279 59.6983
rtoes -29.9132
lfemur -100.372 101.104 -22.8384
ltibia 158.043
lfoot -57.7272 -25.9335
ltoes -38.7756
87
root 0.614367 7.933 3.32944 -184.72 -1.4632 -178.914
lowerback 33.4771 1.33057 8.08502
upperback 13.1014 -0.0127192 1.40013
thorax -2.43636 -1.51142 -2.7166
lowerneck -22.5497 -0.900287 1.43107
upperneck -7.91529 -3.50325 -2.4899
head 1.13817 -2.71221 -1.34702
rclavicle -2.50469e-014 -2.70347e-014
rhumerus 75.6274 -0.247783 -65.9018
rradius 11.3699
rwrist 32.2541
rhand -14.0167 9.50355
rfingers 7.12502
rthumb 12.113 -20.1258
lclavicle -2.50469e-014 -2.70347e-014
lhumerus 78.4224 -11.153 70.1125
lradius 9.62318
lwrist -44.4769
lhand -21.8747 -6.43647
lfingers 7.12502
lthumb 4.52972 23.4951
rfemur 66.8154 -72.808 -157.032
rtibia 154.92
rfoot -72.7805 59.2031
rtoes -30.3655
lfemur -99.8739 99.1588 -23.1185
ltibia 157.619
lfoot -56.7241 -25.9988
ltoes -38.2339
88
root 0.610493 8.00681 3.34465 -184.435 -1.54593 -178.864
lowerback 33.5159 1.30152 8.23285
upperback 13.1542 -0.0262875 1.46378
thorax -2.38486 -1.52088 -2.7232
lowerneck -22.7999 -0.808532 1.50308
upperneck -7.87 -3.41893 -2.63528
head 1.19452 -2.6864 -1.40908
rclavicle 2.42517e-014 7.95139e-015
rhumerus 75.3965 -0.257179 -66.0195
rradius 11.3396
rwrist 32.6177
rhand -14.051 9.54517
rfingers 7.12502
rthumb 12.0799 -20.0861
lclavicle 2.42517e-014 7.95139e-015
lhumerus 78.3563 -11.1066 70.3819
lradius 9.59947
lwrist -44.8244
lhand -21.3402 -6.39859
lfingers 7.12502
lthumb 5.04584 23.5213
rfemur 67.0669 -74.5953 -156.11
rtibia 154.409
rfoot -70.994 58.586
rtoes -30.8144
lfemur -98.5975 96.5542 -22.6859
ltibia 157.084
lfoot -55.4689 -25.8969
ltoes -37.8461
